# AST/ASF file generated using VICON BodyLanguage
# -----------------------------------------------
:version 1.10
:name VICON
:units
  mass 1.0
  length 0.45
  angle deg
:documentation
   .ast/.asf automatically generated from VICON data using
   VICON BodyBuilder and BodyLanguage model FoxedUp or BRILLIANT.MOD
:root
   order TX TY TZ RX RY RZ
   axis XYZ
   position 0 0 0  
   orientation 0 0 0 
:bonedata
  begin
     id 1 
     name lhipjoint
     direction 0.573633 -0.743009 0.344793 
     length 2.46257 
     axis 0 0 0  XYZ
  end
  begin
     id 2 
     name lfemur
     direction 0.34202 -0.939693 0  
     length 7.3842  
     axis 0 0 20  XYZ
    dof rx ry rz
    limits (-160.0 20.0)
           (-70.0 70.0)
           (-60.0 70.0)
  end
  begin
     id 3 
     name ltibia
     direction 0.34202 -0.939693 0   
     length 7.50407   
     axis 0 0 20   XYZ
    dof rx
    limits (-10.0 170.0)
  end
  begin
     id 4 
     name lfoot
     direction 0.110749 -0.304281 0.946123   
     length 1.95925   
     axis -90 7.62852e-016 20   XYZ
    dof rx rz
    limits (-45.0 90.0)
           (-70.0 20.0)
  end
  begin
     id 5 
     name ltoes
     direction 1.53554e-011 -4.21843e-011 1   
     length 0.978318   
     axis -90 7.62852e-016 20   XYZ
    dof rx
    limits (-90.0 20.0)
  end
  begin
     id 6 
     name rhipjoint
     direction -0.488109 -0.791693 0.367385   
     length 2.31113  
     axis 0 0 0  XYZ 
  end
  begin
     id 7 
     name rfemur
     direction -0.34202 -0.939693 0   
     length 7.40965   
     axis 0 0 -20   XYZ
    dof rx ry rz
    limits (-160.0 20.0)
           (-70.0 70.0)
           (-70.0 60.0)
  end
  begin
     id 8 
     name rtibia
     direction -0.34202 -0.939693 0   
     length 7.55548   
     axis 0 0 -20   XYZ
    dof rx
    limits (-10.0 170.0)
 end
 begin
     id 9 
     name rfoot
     direction -0.127594 -0.350561 0.927808   
     length 2.07199  
     axis -90 -7.62852e-016 -20   XYZ
    dof rx rz
    limits (-45.0 90.0)
           (-20.0 70.0)
  end
  begin
     id 10 
     name rtoes
     direction -1.53542e-011 -4.21909e-011 1   
     length 1.02667   
     axis -90 -7.62852e-016 -20   XYZ
    dof rx
    limits (-90.0 20.0)
  end
  begin
     id 11 
     name lowerback
     direction -0.0103342 0.997298 -0.0727278   
     length 2.02836   
     axis 0 0 0   XYZ
    dof rx ry rz
    limits (-20.0 45.0)
           (-30.0 30.0)
           (-30.0 30.0)
  end
  begin
     id 12 
     name upperback
     direction 0.0171146 0.999786 -0.011606   
     length 2.03179   
     axis 0 0 0   XYZ
    dof rx ry rz
    limits (-20.0 45.0)
           (-30.0 30.0)
           (-30.0 30.0)
  end
  begin
     id 13 
     name thorax
     direction 0.0216927 0.999513 0.0224343   
     length 2.03882   
     axis 0 0 0   XYZ
    dof rx ry rz
    limits (-20.0 45.0)
           (-30.0 30.0)
           (-30.0 30.0)
  end
  begin
     id 14 
     name lowerneck
     direction 0.000989287 0.993907 0.110221   
     length 1.75428   
     axis 0 0 0   XYZ
    dof rx ry rz
    limits (-20.0 45.0)
           (-30.0 30.0)
           (-30.0 30.0)
  end
  begin
     id 15 
     name upperneck
     direction -0.0172474 0.994813 -0.100253   
     length 1.77058   
     axis 0 0 0   XYZ
    dof rx ry rz
    limits (-20.0 45.0)
           (-30.0 30.0)
           (-30.0 30.0)
  end
  begin
     id 16
     name head
     direction -0.00486455 0.99894 -0.0457663  
     length 1.77427  
     axis 0 0 0   XYZ
    dof rx ry rz
    limits (-20.0 45.0)
           (-30.0 30.0)
           (-30.0 30.0)
  end
  begin
     id 17 
     name lclavicle
     direction 0.927314 0.333734 -0.169441  
     length 3.97584  
     axis 0 0 0   XYZ
    dof ry rz
    limits (-20.0 10.0)
           (0.0 20.0)
  end
  begin
     id 18 
     name lhumerus
     direction 1 -4.48965e-011 -3.25313e-028   
     length 4.76468   
     axis 180 -30 -90   XYZ
    dof rx ry rz
    limits (-60.0 90.0)
           (-90.0 90.0)
           (-90.0 90.0)
  end
  begin
     id 19
     name lradius
     direction 1 -4.48969e-011 -2.8465e-028   
     length 3.52712   
     axis -180 -30 -90   XYZ
    dof rx
    limits (-10.0 170.0)
  end
  begin
     id 20
     name lwrist
     direction 1 -4.4896e-011 -7.78665e-028   
     length 1.76356   
     axis 1.91374e-015 90 90   XYZ
    dof ry
    limits (-180.0 0.0)
 end
  begin
     id 21 
     name lhand
     direction 1 -4.48959e-011 -1.55733e-027   
     length 0.859564   
     axis 9.9371e-016 90 90   XYZ
    dof rx rz
    limits (-90.0 90.0)
           (-45.0 45.0)
  end
  begin
     id 22 
     name lfingers
     direction 1 -4.48965e-011 -3.11466e-027   
     length 0.693002   
     axis 1.98742e-015 90 90   XYZ
    dof rx
    limits (0.0 90.0)
  end
  begin
     id 23
     name lthumb
     direction 0.707107 -6.34948e-011 0.707107   
     length 0.995017   
     axis -90 45 2.85299e-015   XYZ
    dof rx rz
    limits (-45.0 45.0)
           (-45.0 45.0)
  end
  begin
     id 24 
     name rclavicle
     direction -0.899388 0.348209 -0.264294   
     length 3.68366  
     axis 0 0 0   XYZ 
    dof ry rz
    limits (-10.0 20.0)
           (-20.0 0.0)
  end
  begin
     id 25 
     name rhumerus
     direction -1 -4.48965e-011 -3.01536e-027  
     length 4.90577   
     axis 180 30 90   XYZ
    dof rx ry rz
    limits (-90.0 60.0)
           (-90.0 90.0)
           (-90.0 90.0)
  end
  begin
     id 26 
     name rradius
     direction -1 -4.48966e-011 3.93291e-027   
     length 3.42692   
     axis -180 30 90   XYZ
    dof rx
    limits (-10.0 170.0)
  end
  begin
     id 27 
     name rwrist
     direction -1 -4.48969e-011 -7.78665e-028   
     length 1.71346   
     axis 1.91374e-015 -90 -90   XYZ
    dof ry
    limits (-180.0 0.0)
  end
  begin
     id 28
     name rhand
     direction -1 -4.48967e-011 -1.55733e-027   
     length 0.740957   
     axis 9.9371e-016 -90 -90   XYZ
    dof rx rz
    limits (-90.0 90.0)
           (-45.0 45.0)
  end
  begin
     id 29
     name rfingers
     direction -1 -4.48949e-011 -3.11466e-027   
     length 0.597378   
     axis 1.98742e-015 -90 -90   XYZ
    dof rx
    limits (0.0 90.0)
  end
  begin
     id 30
     name rthumb
     direction -0.707107 -6.34931e-011 0.707107   
     length 0.857719   
     axis -90 -45 -2.85299e-015   XYZ
    dof rx rz
    limits (-45.0 45.0)
           (-45.0 45.0)
  end
:hierarchy
  begin
    root lhipjoint rhipjoint lowerback
    lhipjoint lfemur
    lfemur ltibia
    ltibia lfoot
    lfoot ltoes
    rhipjoint rfemur
    rfemur rtibia
    rtibia rfoot
    rfoot rtoes
    lowerback upperback
    upperback thorax
    thorax lowerneck lclavicle rclavicle
    lowerneck upperneck
    upperneck head
    lclavicle lhumerus
    lhumerus lradius
    lradius lwrist
    lwrist lhand lthumb
    lhand lfingers
    rclavicle rhumerus
    rhumerus rradius
    rradius rwrist
    rwrist rhand rthumb
    rhand rfingers
  end

#!OML:ASF I:\AllaLogoMonkeySwing\Project 1\Capture day 1\Session 1\Subject1.ASF
:FULLY-SPECIFIED
:DEGREES
187
root -0.424626 19.1543 12.5749 -3.23846 6.68064 -0.715668
lowerback 13.0433 1.50829 -3.04109
upperback 2.6588 1.65511 1.25865
thorax -4.63417 0.864745 2.75988
lowerneck -15.1072 -0.801177 -2.72097
upperneck 20.1919 -0.730936 1.38713
head 8.82525 -0.396373 0.83772
rclavicle -1.42628e-014 -1.23246e-014
rhumerus -42.166 -1.1794 -80.9246
rradius 51.278
rwrist -17.5572
rhand -16.1979 -39.0589
rfingers 7.12502
rthumb 10.0093 -68.8009
lclavicle -1.42628e-014 -1.23246e-014
lhumerus -55.5744 14.5037 77.4087
lradius 60.2252
lwrist 14.4381
lhand -22.2792 -24.2438
lfingers 7.12502
lthumb 4.13914 5.6957
rfemur -19.3308 -1.43356 19.4856
rtibia 38.8135
rfoot -4.28027 0.693873
rtoes 12.0758
lfemur -17.7926 0.741566 -20.7647
ltibia 33.8339
lfoot -0.173946 -9.12548
ltoes -39.2776
188
root -0.437771 18.8415 12.8798 -3.70819 7.01693 -0.507635
lowerback 12.9528 1.41148 -3.51869
upperback 2.84536 1.46457 1.19997
thorax -4.38388 0.769661 3.00424
lowerneck -14.7464 -0.695609 -2.68857
upperneck 20.1199 -0.593039 1.34668
head 8.73122 -0.334138 0.835005
rclavicle 1.04486e-014 -7.8023e-015
rhumerus -41.8312 -0.205554 -81.3159
rradius 51.2991
rwrist -17.1436
rhand -16.4786 -39.5161
rfingers 7.12502
rthumb 9.73844 -69.2709
lclavicle 1.04486e-014 -7.8023e-015
lhumerus -55.6293 13.8624 77.8657
lradius 60.1853
lwrist 14.2022
lhand -22.2695 -24.4775
lfingers 7.12502
lthumb 4.14849 5.4619
rfemur -20.1484 -0.0309908 19.4404
rtibia 38.033
rfoot -0.862728 0.88676
rtoes 16.2525
lfemur -18.3741 2.23702 -21.7683
ltibia 33.6981
lfoot 3.06601 -4.64523
ltoes -35.4662
189
root -0.446027 18.4926 13.1928 -4.36256 7.53838 -0.744422
lowerback 12.7609 1.21411 -3.45687
upperback 3.09874 1.22495 1.26873
thorax -3.9936 0.640473 3.08543
lowerneck -14.293 -0.573734 -2.5867
upperneck 19.9239 -0.404303 1.09478
head 8.57713 -0.26426 0.75431
rclavicle 3.84462e-014 5.66536e-015
rhumerus -41.4437 0.800734 -81.7032
rradius 51.3841
rwrist -17.0784
rhand -17.6539 -39.1267
rfingers 7.12502
rthumb 8.6043 -68.9313
lclavicle 3.84462e-014 5.66536e-015
lhumerus -55.3984 13.1288 78.4897
lradius 60.1789
lwrist 14.0925
lhand -22.0926 -24.4425
lfingers 7.12502
lthumb 4.31936 5.49346
rfemur -20.7612 1.28562 19.6187
rtibia 37.6227
rfoot 2.64426 1.2756
rtoes 22.1305
lfemur -18.8213 3.38178 -22.1311
ltibia 34.0868
lfoot 6.23219 -3.74144
ltoes -34.57
190
root -0.452323 18.1085 13.5069 -5.30518 8.39987 -1.2354
lowerback 12.6756 0.878293 -3.14099
upperback 3.4151 0.834731 1.41408
thorax -3.58198 0.434034 3.12349
lowerneck -13.7994 -0.408963 -2.39873
upperneck 19.6477 -0.156308 0.74322
head 8.38883 -0.168834 0.632034
rclavicle 2.47735e-014 -5.36719e-015
rhumerus -41.0214 1.77431 -82.0586
rradius 51.5851
rwrist -17.2043
rhand -18.1056 -38.4243
rfingers 7.12502
rthumb 8.16844 -68.2464
lclavicle 2.47735e-014 -5.36719e-015
lhumerus -55.3468 12.2484 79.1609
lradius 60.3245
lwrist 14.1888
lhand -21.8405 -24.3936
lfingers 7.12502
lthumb 4.56277 5.53722
rfemur -21.0928 2.24772 19.8396
rtibia 37.7331
rfoot 5.74907 2.65227
rtoes 25.4432
lfemur -19.6451 4.51777 -22.1097
ltibia 36.2084
lfoot 8.1043 -3.5057
ltoes -33.1331
191
root -0.466415 17.6144 13.8123 -6.47181 9.53153 -1.67841
lowerback 12.915 0.483892 -2.94988
upperback 3.66142 0.340777 1.5599
thorax -3.41571 0.182722 3.24564
lowerneck -13.1532 -0.248645 -2.28815
upperneck 19.2376 0.0749426 0.497191
head 8.13053 -0.0739897 0.555292
rclavicle 9.13167e-016 -2.06736e-014
rhumerus -40.7816 2.62499 -82.3288
rradius 52.1242
rwrist -17.2583
rhand -17.1821 -38.3045
rfingers 7.12502
rthumb 9.05963 -68.0899
lclavicle 9.13167e-016 -2.06736e-014
lhumerus -55.2851 11.3518 79.8427
lradius 60.3567
lwrist 14.1906
lhand -21.4684 -24.2725
lfingers 7.12502
lthumb 4.92207 5.65031
rfemur -21.0232 3.33469 19.6917
rtibia 39.014
rfoot 1.41662 3.22494
rtoes 15.1895
lfemur -19.1947 5.69381 -22.067
ltibia 39.1575
lfoot -1.71763 -3.76343
ltoes -39.4152
192
root -0.493305 17.1508 14.0678 -7.74984 10.8431 -2.08937
lowerback 13.6911 0.145982 -2.80888
upperback 3.70855 -0.0973866 1.69239
thorax -3.75409 -0.0284937 3.38051
lowerneck -12.0975 -0.17606 -2.70629
upperneck 18.5456 0.139611 0.947925
head 7.70869 -0.0248009 0.776806
rclavicle 2.05928e-015 1.26725e-014
rhumerus -40.9109 3.06061 -82.4947
rradius 52.9406
rwrist -17.1892
rhand -16.2094 -38.1898
rfingers 7.12502
rthumb 9.99819 -67.9323
lclavicle 2.05928e-015 1.26725e-014
lhumerus -55.1224 10.3745 80.5691
lradius 60.0864
lwrist 13.8346
lhand -20.669 -24.3202
lfingers 7.12502
lthumb 5.69394 5.58328
rfemur -20.0443 4.151 19.5239
rtibia 41.5617
rfoot -8.09082 2.43154
rtoes 3.11028
lfemur -18.144 5.91459 -21.8799
ltibia 43.2077
lfoot -10.2232 -0.843918
ltoes -41.6841
